<svg width="19" height="20" viewBox="0 0 19 20" fill="none" xmlns="http://www.w3.org/2000/svg">
<rect width="19" height="20" rx="4" fill="white"/>
<path d="M14.043 9.25391V10.4609H9.91797V11.2461C11.7754 11.3867 12.8711 12.0547 12.8828 13.1562C12.8711 14.3867 11.4766 15.0781 9.16797 15.0781C6.82422 15.0781 5.42969 14.3867 5.42969 13.1562C5.42969 12.0488 6.53711 11.3809 8.42969 11.2461V10.4609H4.31641V9.25391H14.043ZM9.16797 12.3477C7.69141 12.3594 6.94141 12.6172 6.95312 13.1562C6.94141 13.6719 7.69141 13.9531 9.16797 13.9531C10.6094 13.9531 11.3711 13.6719 11.3828 13.1562C11.3711 12.6172 10.6094 12.3594 9.16797 12.3477ZM13.1641 4.87109V6.04297H10.2695C10.5215 6.79297 11.6055 7.51367 13.6328 7.68359L13.1055 8.85547C11.0957 8.66211 9.73633 7.90039 9.16797 6.86328C8.60547 7.90039 7.26953 8.66211 5.24219 8.85547L4.75 7.68359C6.72461 7.51367 7.81445 6.78711 8.08984 6.04297H5.20703V4.87109H13.1641Z" fill="#384152"/>
</svg>
