<svg width="36" height="36" viewBox="0 0 36 36" fill="none" xmlns="http://www.w3.org/2000/svg">
<path d="M17.9984 3.02112C9.71421 3.02112 2.99841 9.73664 2.99841 18.0212C2.99841 26.3057 9.71421 33.0212 17.9984 33.0212C26.2826 33.0212 32.9984 26.3057 32.9984 18.0212C32.9984 9.73664 26.2826 3.02112 17.9984 3.02112ZM17.9984 10.5211C18.8269 10.5211 19.4984 11.1931 19.4984 12.0211C19.4984 12.8491 18.8269 13.5211 17.9984 13.5211C17.17 13.5211 16.4984 12.8491 16.4984 12.0211C16.4984 11.1931 17.17 10.5211 17.9984 10.5211ZM17.9984 15.0211C18.8269 15.0211 19.4984 15.6932 19.4984 16.5212V24.0212C19.4984 24.8492 18.8269 25.5212 17.9984 25.5212C17.17 25.5212 16.4984 24.8492 16.4984 24.0212V16.5212C16.4984 15.6932 17.17 15.0211 17.9984 15.0211Z" fill="#9AC4E8"/>
</svg>
