<svg width="24" height="24" viewBox="0 0 24 24" fill="none" xmlns="http://www.w3.org/2000/svg">
    <path opacity=".8" fill-rule="evenodd" clip-rule="evenodd" d="M13.861.46c.704-.29 1.75-.696 2.789-.287.143.057.285.116.426.177 1.023.446 1.476 1.472 1.768 2.175.052.125.1.244.145.356.101.253.192.479.3.704.15.314.291.534.441.684.15.15.37.292.685.442.225.107.45.198.703.3l.357.145c.703.291 1.728.745 2.175 1.767.061.141.12.284.177.427.409 1.04.003 2.085-.288 2.789-.052.126-.102.243-.15.355-.106.25-.201.475-.285.71-.116.327-.172.584-.172.796 0 .212.056.469.172.796.084.235.179.46.286.71l.15.355c.29.704.696 1.75.287 2.789-.057.143-.115.285-.177.425-.446 1.024-1.472 1.477-2.175 1.768l-.356.145c-.253.102-.48.193-.704.3-.314.15-.535.292-.685.442-.15.15-.291.37-.441.685-.108.225-.199.45-.3.703l-.145.357c-.292.703-.745 1.729-1.768 2.175-.14.061-.283.12-.426.177-1.04.409-2.085.003-2.789-.288-.126-.052-.243-.102-.355-.15-.25-.106-.475-.201-.71-.285-.327-.116-.584-.172-.796-.172-.212 0-.469.056-.796.172-.235.084-.46.179-.71.285-.111.048-.23.098-.355.15-.703.291-1.75.697-2.789.288a12.82 12.82 0 0 1-.426-.177c-1.023-.446-1.476-1.472-1.768-2.175l-.145-.357a12.212 12.212 0 0 0-.3-.703c-.15-.314-.291-.535-.441-.685-.15-.15-.371-.291-.685-.441-.225-.108-.45-.199-.703-.3a35.963 35.963 0 0 1-.357-.145c-.703-.292-1.729-.745-2.175-1.768-.061-.14-.12-.283-.177-.426-.409-1.04-.003-2.085.288-2.789.052-.126.102-.243.15-.355.106-.25.201-.475.285-.71.116-.327.172-.584.172-.796 0-.212-.056-.469-.172-.796-.084-.235-.179-.46-.286-.71l-.15-.355C.17 9.435-.235 8.389.174 7.35c.057-.143.116-.285.177-.426C.796 5.9 1.822 5.448 2.525 5.156l.357-.145c.252-.102.478-.193.703-.3.314-.15.535-.291.685-.441.15-.15.292-.371.441-.685.108-.225.199-.451.3-.703l.145-.357C5.448 1.822 5.901.796 6.924.35c.14-.061.283-.12.426-.177C8.39-.236 9.435.17 10.139.461c.126.052.243.102.355.15.25.106.475.201.71.285.327.116.584.172.796.172.212 0 .469-.056.796-.172.235-.084.46-.179.71-.286l.355-.15z" fill="url(#7s7jen4vaa)"/>
    <path d="M11.711 9.843c-.98 1.462-1.959 3.592-3.886 3.679V16.6s2.948.368 4.866-2.493c.98-1.461 1.959-3.592 3.886-3.679V7.35s-2.948-.368-4.866 2.493zM16.576 13.95H13.91v2.665h2.665V13.95zM10.49 7.345H7.825v2.665h2.665V7.345z" fill="#fff"/>
    <path opacity=".8" fill-rule="evenodd" clip-rule="evenodd" d="M13.861.46c.704-.29 1.75-.696 2.789-.287.143.057.285.116.426.177 1.023.446 1.476 1.472 1.768 2.175.052.125.1.244.145.356.101.253.192.479.3.704.15.314.291.534.441.684.15.15.37.292.685.442.225.107.45.198.703.3l.357.145c.703.291 1.728.745 2.175 1.767.061.141.12.284.177.427.409 1.04.003 2.085-.288 2.789-.052.126-.102.243-.15.355-.106.25-.201.475-.285.71-.116.327-.172.584-.172.796 0 .212.056.469.172.796.084.235.179.46.286.71l.15.355c.29.704.696 1.75.287 2.789-.057.143-.115.285-.177.425-.446 1.024-1.472 1.477-2.175 1.768l-.356.145c-.253.102-.48.193-.704.3-.314.15-.535.292-.685.442-.15.15-.291.37-.441.685-.108.225-.199.45-.3.703l-.145.357c-.292.703-.745 1.729-1.768 2.175-.14.061-.283.12-.426.177-1.04.409-2.085.003-2.789-.288-.126-.052-.243-.102-.355-.15-.25-.106-.475-.201-.71-.285-.327-.116-.584-.172-.796-.172-.212 0-.469.056-.796.172-.235.084-.46.179-.71.285-.111.048-.23.098-.355.15-.703.291-1.75.697-2.789.288a12.82 12.82 0 0 1-.426-.177c-1.023-.446-1.476-1.472-1.768-2.175l-.145-.357a12.212 12.212 0 0 0-.3-.703c-.15-.314-.291-.535-.441-.685-.15-.15-.371-.291-.685-.441-.225-.108-.45-.199-.703-.3a35.963 35.963 0 0 1-.357-.145c-.703-.292-1.729-.745-2.175-1.768-.061-.14-.12-.283-.177-.426-.409-1.04-.003-2.085.288-2.789.052-.126.102-.243.15-.355.106-.25.201-.475.285-.71.116-.327.172-.584.172-.796 0-.212-.056-.469-.172-.796-.084-.235-.179-.46-.286-.71l-.15-.355C.17 9.435-.235 8.389.174 7.35c.057-.143.116-.285.177-.426C.796 5.9 1.822 5.448 2.525 5.156l.357-.145c.252-.102.478-.193.703-.3.314-.15.535-.291.685-.441.15-.15.292-.371.441-.685.108-.225.199-.451.3-.703l.145-.357C5.448 1.822 5.901.796 6.924.35c.14-.061.283-.12.426-.177C8.39-.236 9.435.17 10.139.461c.126.052.243.102.355.15.25.106.475.201.71.285.327.116.584.172.796.172.212 0 .469-.056.796-.172.235-.084.46-.179.71-.286l.355-.15zm-.116.722c.66-.273 1.64-.653 2.614-.27.135.053.268.109.4.166.959.418 1.383 1.38 1.657 2.039l.136.334c.095.237.18.449.281.66.14.294.273.5.414.642.14.14.348.273.642.413.21.1.423.186.66.282l.334.136c.659.273 1.62.698 2.039 1.657.057.132.113.265.165.4.384.974.004 1.955-.269 2.614l-.14.333c-.1.235-.19.445-.268.665-.109.308-.161.548-.161.747 0 .199.052.44.161.747.078.22.168.43.268.665l.14.333c.273.66.653 1.64.27 2.614-.053.134-.108.267-.166.4-.418.958-1.38 1.383-2.04 1.657l-.333.136c-.237.095-.45.18-.66.28-.294.141-.501.274-.642.415-.14.14-.273.347-.414.642-.1.21-.186.422-.28.659l-.137.335c-.274.659-.698 1.62-1.657 2.039-.132.058-.265.113-.4.165-.974.384-1.955.004-2.614-.269a34.268 34.268 0 0 1-.333-.14c-.235-.1-.445-.19-.665-.268-.308-.109-.548-.161-.747-.161-.199 0-.44.052-.747.161-.22.078-.43.168-.664.268l-.334.14c-.66.273-1.64.653-2.614.27a11.599 11.599 0 0 1-.4-.166c-.959-.419-1.384-1.38-1.657-2.04a34.577 34.577 0 0 1-.136-.334c-.095-.236-.18-.448-.281-.66-.14-.293-.273-.5-.414-.641-.14-.14-.348-.273-.642-.414-.21-.1-.423-.186-.66-.281a35.682 35.682 0 0 1-.334-.136c-.659-.274-1.62-.698-2.039-1.657a11.792 11.792 0 0 1-.165-.4c-.384-.974-.004-1.955.269-2.614l.14-.333c.1-.235.19-.445.268-.665.109-.308.161-.548.161-.747 0-.199-.052-.44-.161-.747-.078-.22-.168-.43-.268-.665l-.14-.333c-.273-.66-.653-1.64-.27-2.614.053-.135.109-.268.166-.4.419-.959 1.38-1.384 2.04-1.657.117-.049.228-.094.334-.136.236-.096.448-.18.66-.281.293-.14.5-.274.641-.414.14-.14.273-.348.414-.642.1-.211.186-.423.281-.66l.136-.334c.273-.659.698-1.62 1.657-2.039.132-.057.265-.113.4-.165.974-.384 1.955-.004 2.614.269l.333.14c.235.1.445.19.665.268.308.109.548.161.747.161.199 0 .44-.052.747-.161.22-.078.43-.168.665-.268l.333-.14z" fill="url(#xz0msbkz5b)"/>
    <defs>
        <radialGradient id="7s7jen4vaa" cx="0" cy="0" r="1" gradientUnits="userSpaceOnUse" gradientTransform="rotate(51.506 .668 7.344) scale(30.4247)">
            <stop stop-color="#0048FF"/>
            <stop offset=".5" stop-color="#2DB9FF"/>
            <stop offset="1" stop-color="#B999FF"/>
        </radialGradient>
        <radialGradient id="xz0msbkz5b" cx="0" cy="0" r="1" gradientUnits="userSpaceOnUse" gradientTransform="rotate(51.506 .224 8.037) scale(28.5232)">
            <stop stop-color="#0048FF"/>
            <stop offset=".5" stop-color="#2DB9FF"/>
            <stop offset="1" stop-color="#B999FF"/>
        </radialGradient>
    </defs>
</svg>
