<svg width="128" height="20" viewBox="0 0 128 20" fill="none" xmlns="http://www.w3.org/2000/svg">
<path d="M15.2081 10.7552C15.6767 9.9673 15.9145 8.86468 15.9145 7.44508V5.13568C15.9145 3.34024 15.5069 2.03384 14.6964 1.22102C13.8836 0.408206 12.5794 0.00292969 10.7817 0.00292969H0V17.9687H4.6188V12.5778H8.21195L11.1644 17.9687H16.1703L12.9621 12.322C13.9877 12.0639 14.7371 11.5431 15.2081 10.7552ZM11.2934 7.44508C11.2934 8.47072 10.7795 8.98468 9.75381 8.98468H4.62106V3.59382H9.75381C10.7795 3.59382 11.2934 4.10777 11.2934 5.13342V7.44281V7.44508Z" fill="#004EDB"/>
<path d="M18.4805 17.966H32.7263V14.3729H23.0993V10.6506H32.7263V7.05749H23.0993V3.5934L32.7263 3.61377V0.0206212L18.4805 0.000244141V17.966Z" fill="#004EDB"/>
<path d="M42.6189 4.83634C40.7306 7.6529 38.8424 11.76 35.127 11.9276V17.8618C35.127 17.8618 40.8099 18.5705 44.5072 13.0551C46.3955 10.2385 48.2837 6.13141 51.9991 5.96387V0.0296197C51.9991 0.0296197 46.3162 -0.679049 42.6189 4.83634Z" fill="#004EDB"/>
<path d="M51.9986 12.7539H46.8613V17.8912H51.9986V12.7539Z" fill="#004EDB"/>
<path d="M40.2642 0.0205078H35.127V5.15779H40.2642V0.0205078Z" fill="#004EDB"/>
<path d="M121.932 10.5469C121.932 11.8467 122.92 13.0391 124.306 13.5117L123.844 14.1777C122.786 13.791 121.953 13.0015 121.534 12.0078C121.126 13.1304 120.277 14.0166 119.16 14.4463L118.709 13.7695C120.138 13.2324 121.094 11.9541 121.104 10.4824V9.49414H121.932V10.5469ZM126.207 9V11.4922H127.646V12.2012H126.207V14.8115H125.369V9H126.207ZM123.146 15.0586C125.111 15.0586 126.293 15.6924 126.293 16.7881C126.293 17.9053 125.111 18.5283 123.146 18.5283C121.18 18.5283 119.977 17.9053 119.977 16.7881C119.977 15.6924 121.18 15.0586 123.146 15.0586ZM123.146 15.7354C121.706 15.7354 120.814 16.1328 120.825 16.7881C120.814 17.4648 121.706 17.8516 123.146 17.8623C124.596 17.8516 125.477 17.4648 125.477 16.7881C125.477 16.1328 124.596 15.7354 123.146 15.7354Z" fill="#8A8A8A"/>
<path d="M115.164 10.042V10.7402H114.101V15.3379C114.616 15.3003 115.126 15.2573 115.615 15.1982L115.658 15.8213C113.639 16.1436 111.351 16.1758 109.664 16.1865L109.557 15.4668L110.846 15.4561V10.7402H109.793V10.042H115.164ZM117.065 9V12.835H118.666V13.5439H117.065V18.5498H116.228V9H117.065ZM111.662 15.4453C112.194 15.4346 112.747 15.4131 113.295 15.3809V10.7402H111.662V15.4453Z" fill="#8A8A8A"/>
<path d="M108.524 9.01074V16.0146H107.676V12.3516H105.71V11.6533H107.676V9.01074H108.524ZM108.793 17.6367V18.3457H102.391V15.3809H103.239V17.6367H108.793ZM103.927 10.9766C103.927 12.2119 104.883 13.415 106.279 13.8877L105.839 14.5645C104.759 14.1777 103.927 13.3721 103.519 12.3838C103.105 13.4849 102.224 14.3657 101.091 14.79L100.65 14.1025C102.058 13.6084 103.078 12.3516 103.078 10.9766V10.4824H100.919V9.78418H106.064V10.4824H103.927V10.9766Z" fill="#8A8A8A"/>
<path d="M99.4355 9V18.5498H98.5869V9H99.4355ZM96.6104 10.042C96.5996 12.792 95.3213 15.2197 92.1201 16.7559L91.6582 16.0684C94.2417 14.8438 95.5576 13.0122 95.751 10.7295H92.0986V10.042H96.6104Z" fill="#8A8A8A"/>
<path d="M85.3105 11.7178C85.3105 13.2324 86.0518 14.876 87.3193 15.6279L86.8359 16.2832C85.9175 15.7246 85.2568 14.7041 84.9238 13.5439C84.5693 14.8115 83.8604 15.9019 82.9043 16.4873L82.3672 15.8535C83.6885 15.0801 84.4941 13.3828 84.4941 11.75V9.90234H85.3105V11.7178ZM90.6602 9V18.5498H89.8438V9H90.6602ZM88.6836 9.2041V18.0664H87.8887V13.1465H86.2666V12.4268H87.8887V9.2041H88.6836Z" fill="#8A8A8A"/>
<path d="M81.1846 9.90234V17.6797H80.207V10.9121H80.1641L78.2734 12.1689V11.1914L80.207 9.90234H81.1846Z" fill="#8A8A8A"/>
<path d="M72.4189 17.6797L72.4082 16.9707L75.0615 14.1777C75.9854 13.2002 76.4258 12.6738 76.4258 11.9541C76.4258 11.1592 75.749 10.6328 74.8789 10.6328C73.9551 10.6328 73.3643 11.2236 73.3643 12.0938H72.4512C72.4404 10.7188 73.5039 9.79492 74.9111 9.79492C76.3184 9.79492 77.3281 10.7402 77.3281 11.9541C77.3281 12.8242 76.9199 13.501 75.5449 14.9189L73.7617 16.7559V16.8203H77.4678V17.6797H72.4189Z" fill="#8A8A8A"/>
<path d="M65.3164 19.8711C65.1123 19.8711 64.9189 19.8604 64.8008 19.8496V19.0225C64.8975 19.0332 65.1123 19.0439 65.252 19.0439C65.6279 19.0439 65.9395 19.0117 66.251 18.1631L66.4229 17.7227L64.2637 11.8467H65.2734L66.8633 16.4766H66.9277L68.5176 11.8467H69.5273L67.0566 18.5176C66.7129 19.4307 66.1436 19.8711 65.3164 19.8711Z" fill="#8A8A8A"/>
<path d="M59 17.6797V9.90234H59.9238V12.7705H59.999C60.2031 12.459 60.5469 11.7715 61.6855 11.7715C63.1465 11.7715 64.1777 12.9316 64.1777 14.7793C64.1777 16.627 63.1465 17.7979 61.6963 17.7979C60.5791 17.7979 60.2031 17.1104 59.999 16.7881H59.8916V17.6797H59ZM59.9023 14.7578C59.9023 16.0684 60.4932 16.9707 61.5566 16.9707C62.6631 16.9707 63.2432 16.0039 63.2432 14.7578C63.2432 13.5439 62.6846 12.5986 61.5566 12.5986C60.4824 12.5986 59.9023 13.4688 59.9023 14.7578Z" fill="#8A8A8A"/>
</svg>
